Yes.. it's my first upload since i just registered here, however.. i hope you enjoy this raw! i made it best possible quality, so be nice :P

This is FULL movie! not 22 mins that is recorded from corner! THIS IS NOT A CAM RIP!

Obviously there is NO english subtitles, becouse this is RAW. so if you want to spoil your enjoyment, feel free to do so.. best quality for spoiling everything.

SUGGESTED PLAYER: VLC (but should work with anything).

Some info:

Format                           : AVI
Format/Info                      : Audio Video Interleave
File size                        : 851 MiB
Duration                         : 1h 25mn
Overall bit rate                 : 1 396 Kbps

Video
ID                               : 0
Format                           : AVC
Format/Info                      : Advanced Video Codec
Format profile                   : Main@L5.1
Format settings, CABAC           : Yes
Format settings, ReFrames        : 1 frame
Format settings, GOP             : M=1, N=6
Codec ID                         : H264
Duration                         : 1h 25mn
Bit rate                         : 1 195 Kbps
Width                            : 848 pixels
Height                           : 464 pixels
Display aspect ratio             : 16:9
Frame rate                       : 23.000 fps
Color space                      : YUV
Chroma subsampling               : 4:2:0
Bit depth                        : 8 bits
Scan type                        : Progressive
Bits/(Pixel*Frame)               : 0.132
Stream size                      : 728 MiB (86%)

Audio
ID                               : 1
Format                           : MPEG Audio
Format version                   : Version 1
Format profile                   : Layer 3
Codec ID                         : 55
Codec ID/Hint                    : MP3
Duration                         : 1h 25mn
Bit rate mode                    : Constant
Bit rate                         : 192 Kbps
Channel(s)                       : 2 channels
Sampling rate                    : 44.1 KHz
Compression mode                 : Lossy
Stream size                      : 117 MiB (14%)
Alignment                        : Split accross interleaves
Interleave, duration             : 44 ms (1.00 video frame)
Interleave, preload duration     : 181 ms
Writing library                  : LAMELAME_MAJOR_VERSI

